HIERARCHY
ROOT pelvis
{
  OFFSET 0 100 0
  CHANNELS 6 Xposition Yposition Zposition Zrotation Xrotation Yrotation
  JOINT pelvis_right_femur
  {
    OFFSET -10.78128 -3.44521 -0.5502486
    CHANNELS 3 Zrotation Xrotation Yrotation
    JOINT right_femur_tibia
    {
      OFFSET -0.8047443 -44.0398 -0.1307829
      CHANNELS 3 Zrotation Xrotation Yrotation
      JOINT right_tibia_foot
      {
        OFFSET 3.006224 -47.83518 -5
        CHANNELS 3 Zrotation Xrotation Yrotation
        End Site
        {
          OFFSET 0 -5 15
        }
      }
    }
  }
  JOINT pelvis_left_femur
  {
    OFFSET 10.78128 -3.44521 -0.5502486
    CHANNELS 3 Zrotation Xrotation Yrotation
    JOINT left_femur_tibia
    {
      OFFSET 0.8047443 -44.0398 -0.1307829
      CHANNELS 3 Zrotation Xrotation Yrotation
      JOINT left_tibia_foot
      {
        OFFSET -4.370144 -48.10324 -4.275266
        CHANNELS 3 Zrotation Xrotation Yrotation
        End Site
        {
          OFFSET 0 -5 15
        }
      }
    }
  }
  JOINT pelvis_spine1
  {
    OFFSET 0 6.468898 -3.129235
    CHANNELS 3 Zrotation Xrotation Yrotation
    JOINT spine1
    {
      OFFSET 0 23.15396 4.99043
      CHANNELS 3 Zrotation Xrotation Yrotation
      JOINT spine2
      {
        OFFSET 0 20.79997 -5.064912
        CHANNELS 3 Zrotation Xrotation Yrotation
        JOINT neck
        {
          OFFSET 0 14.38658 9.616178
          CHANNELS 3 Zrotation Xrotation Yrotation
          End Site
          {
            OFFSET 0 20 0
          }
        }
      }
      JOINT right_manubrium
      {
        OFFSET -5.722621 16.35077 3.967754
        CHANNELS 3 Zrotation Xrotation Yrotation
        JOINT right_clavicle
        {
          OFFSET -13.16364 1.694482 -4.693211
          CHANNELS 3 Zrotation Xrotation Yrotation
          JOINT right_humerus
          {
            OFFSET -28.5034 -0.3100689 -2.792744
            CHANNELS 3 Zrotation Xrotation Yrotation
            JOINT right_radius
            {
              OFFSET -25.15693 0.02248979 -1.271978
              CHANNELS 3 Zrotation Xrotation Yrotation
              End Site
              {
                OFFSET -15 0 0
              }
            }
          }
        }
      }
      JOINT left_manubrium
      {
        OFFSET 5.722621 16.35077 3.967754
        CHANNELS 3 Zrotation Xrotation Yrotation
        JOINT left_clavicle
        {
          OFFSET 13.16364 1.694482 -4.693211
          CHANNELS 3 Zrotation Xrotation Yrotation
          JOINT left_humerus
          {
            OFFSET 29.39168 -1.063119 -2.237045
            CHANNELS 3 Zrotation Xrotation Yrotation
            JOINT left_radius
            {
              OFFSET 24.59957 -0.9528479 0.9047498
              CHANNELS 3 Zrotation Xrotation Yrotation
              End Site
              {
                OFFSET 15 -0 -0
              }
            }
          }
        }
      }
    }
  }
}
MOTION
Frames: 9
Frame Time: 0.0416666666667
957.523 104.3294 2966.253 5.252001 -6.519292 31.9858 0.6232064 -11.10601 3.177844 -0 49.45103 -0 1.686178 -0.8795329 -8.452134 -5.212367 4.369231 -7.478832 -0 16.39921 -0 -3.814651 -15.6424 14.93797 -2.468288 0.9499998 3.58557 -0.04552317 10.31153 -6.435549 1.719814 22.60271 5.952541 1.21305 -16.55187 8.142085 1.875909 -16.9997 10.29863 88.5122 24.30781 -15.34655 -0 0 14.48993 -22.59971 12.02954 12.16367 4.075242 -18.54297 -4.703883 -85.05446 24.01321 12.93708 0 0 -17.51644 0.04577395 5.700999 14.54484
960.7935 104.1839 2970.836 5.121785 -6.354262 32.99835 0.6201466 -16.37861 2.317264 -0 41.08009 -0 0.8818033 -2.75992 -8.976971 -5.162829 8.862043 -7.534797 -0 15.04041 -0 -4.303856 -17.1365 13.87565 -2.400317 1.137241 2.75729 0.4170593 9.798388 -7.053912 1.894378 22.89497 5.763476 0.9767085 -16.12471 8.323089 1.218747 -15.9414 10.00023 89.83295 23.76016 -17.28011 -0 0 12.73796 -21.7298 12.11967 11.31604 4.726919 -19.61234 -4.923391 -83.32083 24.05955 9.110541 0 0 -20.34591 0.7595601 6.548532 13.31492
963.9888 103.497 2975.528 5.075438 -5.800391 33.84285 0.2556311 -20.26209 1.450516 -0 31.46417 -0 0.07677834 -4.172088 -9.367741 -5.281394 12.49406 -7.491365 -0 14.38128 -0 -4.609298 -18.55443 13.05229 -2.621405 1.092894 2.29739 0.8630507 9.352962 -7.582953 2.071814 23.02417 5.581605 0.8968622 -15.99497 8.389732 0.6932777 -15.01628 9.784025 90.89592 23.49037 -19.18526 -0 0 10.86334 -21.08941 12.19921 10.59881 5.335806 -20.74262 -5.057449 -81.72556 23.89338 5.672787 0 0 -23.34135 1.48227 7.24635 12.07002
967.2018 102.3791 2980.406 5.049186 -4.911557 34.55192 -0.2734273 -22.86562 0.7896668 -0 22.23003 -0 -0.5962517 -4.831069 -9.642893 -5.519017 15.15585 -7.373797 -0 14.27874 -0 -4.648082 -19.82916 12.57596 -3.009669 0.8511534 2.224119 1.220339 9.069117 -7.997077 2.208475 22.92138 5.480835 1.003825 -16.19323 8.354434 0.4326696 -14.32987 9.667004 91.6329 23.6641 -20.97871 -0 0 9.079302 -20.70993 12.33389 10.08344 5.875696 -21.85568 -5.080532 -80.38001 23.53216 2.986661 0 0 -26.32145 2.162265 7.627558 10.97819
970.5111 100.9741 2985.533 5.049851 -3.965928 35.20355 -0.6802912 -24.43124 0.5283655 -0 14.97114 -0 -1.037201 -4.977782 -9.902337 -5.737855 17.09973 -7.314651 -0 14.73776 -0 -4.655558 -20.83844 12.3693 -3.387195 0.5278091 2.380306 1.39254 8.835316 -8.18743 2.377273 22.7089 5.380128 1.188471 -16.46135 8.297379 0.3718403 -13.75694 9.551414 92.07568 24.05147 -22.42487 -0 0 7.610039 -20.34172 12.47097 9.568315 6.364836 -22.71785 -4.930098 -79.33579 23.18617 1.022341 0 0 -28.86714 2.782424 7.785537 10.07716
973.9619 99.51534 2991.005 5.018265 -3.389642 35.85694 -0.4723883 -25.4255 0.8616304 -0 11.20176 -0 -1.334018 -5.019511 -10.29113 -5.656835 18.93836 -7.488566 -0 16.41932 -0 -5.025217 -21.27928 12.29137 -3.517784 0.2884859 2.405365 1.372114 8.444663 -8.084285 2.667038 22.60157 5.146638 1.315341 -16.48405 8.279166 0.454588 -12.97938 9.35306 92.23519 24.37725 -23.24227 -0 0 6.433142 -19.54789 12.50631 8.708373 6.773427 -23.02575 -4.552047 -78.64499 23.0747 -0.4941921 0 0 -30.28797 3.386844 8.058682 9.191169
977.5903 98.46794 2996.949 4.595736 -3.517332 36.39778 1.108784 -25.85292 2.063001 -0 12.03773 -0 -1.699894 -4.696778 -10.72236 -4.923591 20.74133 -7.832755 -0 21.26138 -0 -5.898458 -20.09146 12.37647 -3.008192 0.1598758 1.97698 1.40454 8.082825 -7.924766 2.891478 22.53347 4.849219 1.441898 -16.436 8.108748 0.981211 -12.05 9.283652 91.94604 24.80288 -23.32608 -0 0 5.426694 -18.21045 12.4211 7.659326 6.804153 -22.58026 -4.127029 -78.69516 23.04735 -0.991986 0 0 -29.6038 3.831299 8.438465 8.403487
981.369 98.31201 3003.263 3.641088 -4.215722 36.53806 3.772363 -24.39777 3.774882 -0 15.9607 -0 -2.19608 -3.594873 -10.734 -3.745761 20.87449 -8.022896 -0 30.26012 -0 -7.001046 -16.35073 12.68983 -1.721073 -0.06237504 1.484066 1.698494 8.396091 -8.04744 2.721101 22.25967 4.752604 1.711366 -16.87652 7.558688 2.095209 -11.82786 9.721109 91.27494 25.58293 -23.01296 -0 0 4.905751 -17.21298 12.54847 7.323088 6.097867 -21.71973 -4.119556 -79.94869 23.08659 0.9529397 0 0 -27.04192 3.429499 8.655814 8.958745
985.1306 98.97124 3009.572 3.067886 -5.091759 36.21809 5.599236 -20.81267 4.817194 -0 19.14699 -0 -2.731922 -3.088588 -10.32367 -2.935312 18.49906 -8.028078 -0 40.41619 -0 -8.079904 -12.05934 13.00434 -0.5293179 -0.2202183 1.598436 1.922069 9.063915 -8.075858 2.509221 22.21871 4.692092 1.897497 -17.28167 7.02688 2.987463 -12.30067 10.32884 90.67712 26.17254 -22.49223 -0 0 5.090302 -17.14073 12.98253 7.622741 5.042761 -20.97083 -4.412655 -81.73333 23.67653 4.128701 0 0 -24.51916 2.130513 9.128364 11.06036
